<?xml version='1.0' encoding='utf-8'?>
<mlt title="Anonymous Submission" LC_NUMERIC="en_US.UTF-8" producer="main_bin" version="6.20.0" root="/home/docu/Documents/kuliah/s1/semester7/sistem-embedded/tugas/tugas-p8/tugas-video">
 <profile frame_rate_num="30000" sample_aspect_num="1" display_aspect_den="9" colorspace="709" progressive="1" description="HD 1080p 29.97 fps" display_aspect_num="16" frame_rate_den="1001" width="1920" height="1080" sample_aspect_den="1"/>
 <producer id="producer0" in="00:00:00.000" out="00:00:15.449">
  <property name="length">464</property>
  <property name="eof">pause</property>
  <property name="resource"/>
  <property name="progressive">1</property>
  <property name="aspect_ratio">1</property>
  <property name="seekable">1</property>
  <property name="mlt_service">kdenlivetitle</property>
  <property name="kdenlive:duration">150</property>
  <property name="kdenlive:clipname">Sensor Suhu ...</property>
  <property name="xmldata">&lt;kdenlivetitle duration="150" LC_NUMERIC="en_US.UTF-8" width="1920" height="1080" out="149">
 &lt;item type="QGraphicsTextItem" z-index="5">
  &lt;position x="570" y="448">
   &lt;transform>1,0,0,0,1,0,0,0,1&lt;/transform>
  &lt;/position>
  &lt;content line-spacing="0" shadow="0;#64000000;3;3;3" font-underline="0" box-height="500" font-outline-color="255,255,255,255" font="Keraleeyam" letter-spacing="0" font-pixel-size="100" font-italic="0" alignment="2" font-weight="50" font-outline="0" box-width="1150.64" font-color="0,0,0,255">Anggota:
Cahyanti - 2113161018
Emerentiana Jaga Ujan - 2113191114
Hendri Aprianto - 2113227001
Rizqy Panca Riandy - 2113191024&lt;/content>
 &lt;/item>
 &lt;item type="QGraphicsPixmapItem" z-index="4">
  &lt;position x="430" y="415">
   &lt;transform>2.84328,0,0,0,2.84328,0,0,0,1&lt;/transform>
  &lt;/position>
  &lt;content url="/home/docu/Documents/kuliah/s1/semester7/sistem-embedded/tugas/template/video-template/bg-sub.png"/>
 &lt;/item>
 &lt;item type="QGraphicsTextItem" z-index="1">
  &lt;position x="357" y="160">
   &lt;transform>1,0,0,0,1,0,0,0,1&lt;/transform>
  &lt;/position>
  &lt;content line-spacing="0" shadow="0;#64000000;3;3;3" font-underline="0" box-height="240" font-outline-color="255,255,255,255" font="Keraleeyam" letter-spacing="0" font-pixel-size="120" font-italic="0" alignment="2" font-weight="50" font-outline="0" box-width="1362.64" font-color="0,0,0,255">Sensor Suhu Menggunakan DHT22
Kelompok 12&lt;/content>
 &lt;/item>
 &lt;item type="QGraphicsPixmapItem" z-index="0">
  &lt;position x="1176" y="218">
   &lt;transform>1,0,0,0,1,0,0,0,1&lt;/transform>
  &lt;/position>
  &lt;content url="/home/docu/Documents/kuliah/s1/semester7/sistem-embedded/tugas/template/video-template/bg-sub.png"/>
 &lt;/item>
 &lt;item type="QGraphicsPixmapItem" z-index="0">
  &lt;position x="278" y="101">
   &lt;transform>1,0,0,0,1,0,0,0,1&lt;/transform>
  &lt;/position>
  &lt;content url="/home/docu/Documents/kuliah/s1/semester7/sistem-embedded/tugas/template/video-template/bg-sub.png"/>
 &lt;/item>
 &lt;startviewport rect="0,0,1920,1080"/>
 &lt;endviewport rect="0,0,1920,1080"/>
 &lt;background color="255,255,255,0"/>
&lt;/kdenlivetitle>
</property>
  <property name="kdenlive:folderid">-1</property>
  <property name="kdenlive:id">2</property>
  <property name="kdenlive:file_hash">a34210c48dd5d8c1d7eecd62e80f3521</property>
  <property name="force_reload">0</property>
  <property name="meta.media.width">1920</property>
  <property name="meta.media.height">1080</property>
 </producer>
 <producer title="Anonymous Submission" id="producer1" in="00:00:00.000" out="00:16:06.940">
  <property name="length">28980</property>
  <property name="eof">pause</property>
  <property name="resource">/home/docu/Videos/p9-rev-2022-11-23_15.50.34.mkv</property>
  <property name="audio_index">1</property>
  <property name="video_index">0</property>
  <property name="mute_on_pause">0</property>
  <property name="mlt_service">avformat-novalidate</property>
  <property name="meta.media.nb_streams">2</property>
  <property name="meta.media.0.stream.type">video</property>
  <property name="meta.media.0.stream.frame_rate">45.4545</property>
  <property name="meta.media.0.stream.sample_aspect_ratio">1</property>
  <property name="meta.media.0.codec.width">1366</property>
  <property name="meta.media.0.codec.height">768</property>
  <property name="meta.media.0.codec.rotate">0</property>
  <property name="meta.media.0.codec.frame_rate">45</property>
  <property name="meta.media.0.codec.pix_fmt">yuv420p</property>
  <property name="meta.media.0.codec.sample_aspect_ratio">1</property>
  <property name="meta.media.0.codec.colorspace">709</property>
  <property name="meta.media.0.codec.color_trc">1</property>
  <property name="meta.media.0.codec.name">h264</property>
  <property name="meta.media.0.codec.long_name">H.264 / AVC / MPEG-4 AVC / MPEG-4 part 10</property>
  <property name="meta.media.0.codec.bit_rate">0</property>
  <property name="meta.attr.0.stream.DURATION.markup">00:16:06.934000000</property>
  <property name="meta.media.1.stream.type">audio</property>
  <property name="meta.media.1.codec.sample_fmt">fltp</property>
  <property name="meta.media.1.codec.sample_rate">48000</property>
  <property name="meta.media.1.codec.channels">2</property>
  <property name="meta.media.1.codec.name">vorbis</property>
  <property name="meta.media.1.codec.long_name">Vorbis</property>
  <property name="meta.media.1.codec.bit_rate">0</property>
  <property name="meta.attr.1.stream.DURATION.markup">00:16:06.973000000</property>
  <property name="meta.attr.ENCODER.markup">Lavf58.29.100</property>
  <property name="seekable">1</property>
  <property name="meta.media.sample_aspect_num">1</property>
  <property name="meta.media.sample_aspect_den">1</property>
  <property name="aspect_ratio">1</property>
  <property name="kdenlive:clipname"/>
  <property name="kdenlive:folderid">-1</property>
  <property name="meta.media.frame_rate_num">500</property>
  <property name="meta.media.frame_rate_den">11</property>
  <property name="meta.media.colorspace">709</property>
  <property name="meta.media.color_trc">1</property>
  <property name="meta.media.width">1366</property>
  <property name="meta.media.height">768</property>
  <property name="meta.media.color_range">mpeg</property>
  <property name="kdenlive:id">3</property>
  <property name="kdenlive:file_size">51058310</property>
  <property name="kdenlive:file_hash">583e26419cf906cd2475bc5e823567dc</property>
  <property name="meta.media.top_field_first">0</property>
  <property name="meta.media.progressive">1</property>
  <property name="global_feed">1</property>
 </producer>
 <playlist id="main_bin">
  <property name="kdenlive:docproperties.activeTrack">1</property>
  <property name="kdenlive:docproperties.audioTarget">-1</property>
  <property name="kdenlive:docproperties.decimalPoint">.</property>
  <property name="kdenlive:docproperties.disablepreview">0</property>
  <property name="kdenlive:docproperties.documentid">1669197452439</property>
  <property name="kdenlive:docproperties.enableTimelineZone">0</property>
  <property name="kdenlive:docproperties.enableexternalproxy">0</property>
  <property name="kdenlive:docproperties.enableproxy">0</property>
  <property name="kdenlive:docproperties.externalproxyparams"/>
  <property name="kdenlive:docproperties.generateimageproxy">0</property>
  <property name="kdenlive:docproperties.generateproxy">0</property>
  <property name="kdenlive:docproperties.groups">[
    {
        "children": [
            {
                "children": [
                    {
                        "data": "1:13343",
                        "leaf": "clip",
                        "type": "Leaf"
                    },
                    {
                        "data": "2:13343",
                        "leaf": "clip",
                        "type": "Leaf"
                    }
                ],
                "type": "AVSplit"
            },
            {
                "children": [
                    {
                        "data": "2:22010",
                        "leaf": "clip",
                        "type": "Leaf"
                    },
                    {
                        "data": "1:22010",
                        "leaf": "clip",
                        "type": "Leaf"
                    }
                ],
                "type": "AVSplit"
            },
            {
                "children": [
                    {
                        "data": "2:17860",
                        "leaf": "clip",
                        "type": "Leaf"
                    },
                    {
                        "data": "1:17860",
                        "leaf": "clip",
                        "type": "Leaf"
                    }
                ],
                "type": "AVSplit"
            },
            {
                "children": [
                    {
                        "data": "2:20991",
                        "leaf": "clip",
                        "type": "Leaf"
                    },
                    {
                        "data": "1:20991",
                        "leaf": "clip",
                        "type": "Leaf"
                    }
                ],
                "type": "AVSplit"
            },
            {
                "children": [
                    {
                        "data": "2:6748",
                        "leaf": "clip",
                        "type": "Leaf"
                    },
                    {
                        "data": "1:6748",
                        "leaf": "clip",
                        "type": "Leaf"
                    }
                ],
                "type": "AVSplit"
            },
            {
                "children": [
                    {
                        "data": "2:9180",
                        "leaf": "clip",
                        "type": "Leaf"
                    },
                    {
                        "data": "1:9180",
                        "leaf": "clip",
                        "type": "Leaf"
                    }
                ],
                "type": "AVSplit"
            },
            {
                "children": [
                    {
                        "data": "2:20117",
                        "leaf": "clip",
                        "type": "Leaf"
                    },
                    {
                        "data": "1:20117",
                        "leaf": "clip",
                        "type": "Leaf"
                    }
                ],
                "type": "AVSplit"
            },
            {
                "children": [
                    {
                        "data": "1:14473",
                        "leaf": "clip",
                        "type": "Leaf"
                    },
                    {
                        "data": "2:14473",
                        "leaf": "clip",
                        "type": "Leaf"
                    }
                ],
                "type": "AVSplit"
            },
            {
                "data": "3:0",
                "leaf": "clip",
                "type": "Leaf"
            },
            {
                "children": [
                    {
                        "data": "2:15117",
                        "leaf": "clip",
                        "type": "Leaf"
                    },
                    {
                        "data": "1:15117",
                        "leaf": "clip",
                        "type": "Leaf"
                    }
                ],
                "type": "AVSplit"
            },
            {
                "children": [
                    {
                        "data": "1:13954",
                        "leaf": "clip",
                        "type": "Leaf"
                    },
                    {
                        "data": "2:13954",
                        "leaf": "clip",
                        "type": "Leaf"
                    }
                ],
                "type": "AVSplit"
            },
            {
                "children": [
                    {
                        "data": "2:13868",
                        "leaf": "clip",
                        "type": "Leaf"
                    },
                    {
                        "data": "1:13868",
                        "leaf": "clip",
                        "type": "Leaf"
                    }
                ],
                "type": "AVSplit"
            },
            {
                "children": [
                    {
                        "data": "1:16223",
                        "leaf": "clip",
                        "type": "Leaf"
                    },
                    {
                        "data": "2:16223",
                        "leaf": "clip",
                        "type": "Leaf"
                    }
                ],
                "type": "AVSplit"
            },
            {
                "children": [
                    {
                        "data": "2:17036",
                        "leaf": "clip",
                        "type": "Leaf"
                    },
                    {
                        "data": "1:17036",
                        "leaf": "clip",
                        "type": "Leaf"
                    }
                ],
                "type": "AVSplit"
            },
            {
                "children": [
                    {
                        "data": "1:0",
                        "leaf": "clip",
                        "type": "Leaf"
                    },
                    {
                        "data": "2:0",
                        "leaf": "clip",
                        "type": "Leaf"
                    }
                ],
                "type": "AVSplit"
            },
            {
                "children": [
                    {
                        "data": "2:12436",
                        "leaf": "clip",
                        "type": "Leaf"
                    },
                    {
                        "data": "1:12436",
                        "leaf": "clip",
                        "type": "Leaf"
                    }
                ],
                "type": "AVSplit"
            },
            {
                "children": [
                    {
                        "data": "2:21441",
                        "leaf": "clip",
                        "type": "Leaf"
                    },
                    {
                        "data": "1:21441",
                        "leaf": "clip",
                        "type": "Leaf"
                    }
                ],
                "type": "AVSplit"
            },
            {
                "children": [
                    {
                        "data": "2:11689",
                        "leaf": "clip",
                        "type": "Leaf"
                    },
                    {
                        "data": "1:11689",
                        "leaf": "clip",
                        "type": "Leaf"
                    }
                ],
                "type": "AVSplit"
            },
            {
                "children": [
                    {
                        "data": "1:15039",
                        "leaf": "clip",
                        "type": "Leaf"
                    },
                    {
                        "data": "2:15039",
                        "leaf": "clip",
                        "type": "Leaf"
                    }
                ],
                "type": "AVSplit"
            },
            {
                "children": [
                    {
                        "data": "1:20286",
                        "leaf": "clip",
                        "type": "Leaf"
                    },
                    {
                        "data": "2:20286",
                        "leaf": "clip",
                        "type": "Leaf"
                    }
                ],
                "type": "AVSplit"
            },
            {
                "children": [
                    {
                        "data": "1:22467",
                        "leaf": "clip",
                        "type": "Leaf"
                    },
                    {
                        "data": "2:22467",
                        "leaf": "clip",
                        "type": "Leaf"
                    }
                ],
                "type": "AVSplit"
            }
        ],
        "type": "Normal"
    }
]
</property>
  <property name="kdenlive:docproperties.kdenliveversion">19.12.3</property>
  <property name="kdenlive:docproperties.position">22560</property>
  <property name="kdenlive:docproperties.previewextension"/>
  <property name="kdenlive:docproperties.previewparameters"/>
  <property name="kdenlive:docproperties.profile">atsc_1080p_2997</property>
  <property name="kdenlive:docproperties.proxyextension"/>
  <property name="kdenlive:docproperties.proxyimageminsize">2000</property>
  <property name="kdenlive:docproperties.proxyimagesize">800</property>
  <property name="kdenlive:docproperties.proxyminsize">1000</property>
  <property name="kdenlive:docproperties.proxyparams"/>
  <property name="kdenlive:docproperties.renderaudioquality">256</property>
  <property name="kdenlive:docproperties.rendercategory">Generic (HD for web, mobile devices...)</property>
  <property name="kdenlive:docproperties.renderendguide">-1</property>
  <property name="kdenlive:docproperties.renderexportaudio">0</property>
  <property name="kdenlive:docproperties.renderfield">0</property>
  <property name="kdenlive:docproperties.renderguide">0</property>
  <property name="kdenlive:docproperties.renderplay">0</property>
  <property name="kdenlive:docproperties.renderprofile">MP4 - the dominating format (H264/AAC)</property>
  <property name="kdenlive:docproperties.renderquality">15</property>
  <property name="kdenlive:docproperties.renderratio">1</property>
  <property name="kdenlive:docproperties.renderrescale">0</property>
  <property name="kdenlive:docproperties.renderrescaleheight">540</property>
  <property name="kdenlive:docproperties.renderrescalewidth">960</property>
  <property name="kdenlive:docproperties.renderscanning">0</property>
  <property name="kdenlive:docproperties.renderspeed">2</property>
  <property name="kdenlive:docproperties.renderstartguide">-1</property>
  <property name="kdenlive:docproperties.rendertcoverlay">0</property>
  <property name="kdenlive:docproperties.rendertctype">0</property>
  <property name="kdenlive:docproperties.rendertwopass">0</property>
  <property name="kdenlive:docproperties.renderurl">/home/docu/Videos/p9.mp4</property>
  <property name="kdenlive:docproperties.renderzone">0</property>
  <property name="kdenlive:docproperties.scrollPos">773</property>
  <property name="kdenlive:docproperties.seekOffset">30000</property>
  <property name="kdenlive:docproperties.version">0.99</property>
  <property name="kdenlive:docproperties.verticalzoom">1</property>
  <property name="kdenlive:docproperties.videoTarget">-1</property>
  <property name="kdenlive:docproperties.zonein">0</property>
  <property name="kdenlive:docproperties.zoneout">75</property>
  <property name="kdenlive:docproperties.zoom">15</property>
  <property name="kdenlive:documentnotes"/>
  <property name="xml_retain">1</property>
  <entry producer="producer0" in="00:00:00.000" out="00:00:15.449"/>
  <entry producer="producer1" in="00:00:00.000" out="00:16:06.940"/>
 </playlist>
 <producer id="black_track" in="00:00:00.000" out="00:29:13.747">
  <property name="length">2147483647</property>
  <property name="eof">continue</property>
  <property name="resource">black</property>
  <property name="aspect_ratio">1</property>
  <property name="mlt_service">color</property>
  <property name="mlt_image_format">rgb24a</property>
  <property name="set.test_audio">0</property>
 </producer>
 <playlist id="playlist0">
  <property name="kdenlive:audio_track">1</property>
  <filter id="filter0">
   <property name="window">75</property>
   <property name="max_gain">20dB</property>
   <property name="mlt_service">volume</property>
   <property name="internal_added">237</property>
   <property name="disable">1</property>
  </filter>
  <filter id="filter1">
   <property name="channel">-1</property>
   <property name="mlt_service">panner</property>
   <property name="internal_added">237</property>
   <property name="start">0.5</property>
   <property name="disable">1</property>
  </filter>
 </playlist>
 <playlist id="playlist1">
  <property name="kdenlive:audio_track">1</property>
 </playlist>
 <tractor id="tractor0" in="00:00:00.000">
  <property name="kdenlive:audio_track">1</property>
  <property name="kdenlive:trackheight">60</property>
  <property name="kdenlive:collapsed">0</property>
  <property name="kdenlive:thumbs_format"/>
  <property name="kdenlive:audio_rec"/>
  <property name="kdenlive:timeline_active"/>
  <track hide="video" producer="playlist0"/>
  <track hide="video" producer="playlist1"/>
  <filter id="filter2">
   <property name="iec_scale">0</property>
   <property name="mlt_service">audiolevel</property>
  </filter>
 </tractor>
 <producer title="Anonymous Submission" id="producer2" in="00:00:00.000" out="00:16:06.940">
  <property name="length">28980</property>
  <property name="eof">pause</property>
  <property name="resource">/home/docu/Videos/p9-rev-2022-11-23_15.50.34.mkv</property>
  <property name="audio_index">1</property>
  <property name="video_index">0</property>
  <property name="mute_on_pause">0</property>
  <property name="mlt_service">avformat-novalidate</property>
  <property name="seekable">1</property>
  <property name="aspect_ratio">1</property>
  <property name="kdenlive:clipname"/>
  <property name="kdenlive:folderid">-1</property>
  <property name="kdenlive:id">3</property>
  <property name="kdenlive:file_size">51058310</property>
  <property name="kdenlive:file_hash">583e26419cf906cd2475bc5e823567dc</property>
  <property name="global_feed">1</property>
  <property name="xml">was here</property>
  <property name="meta.media.nb_streams">2</property>
  <property name="meta.media.0.stream.type">video</property>
  <property name="meta.media.0.stream.frame_rate">45.4545</property>
  <property name="meta.media.0.stream.sample_aspect_ratio">1</property>
  <property name="meta.media.0.codec.width">1366</property>
  <property name="meta.media.0.codec.height">768</property>
  <property name="meta.media.0.codec.rotate">0</property>
  <property name="meta.media.0.codec.frame_rate">45</property>
  <property name="meta.media.0.codec.pix_fmt">yuv420p</property>
  <property name="meta.media.0.codec.sample_aspect_ratio">1</property>
  <property name="meta.media.0.codec.colorspace">709</property>
  <property name="meta.media.0.codec.color_trc">1</property>
  <property name="meta.media.0.codec.name">h264</property>
  <property name="meta.media.0.codec.long_name">H.264 / AVC / MPEG-4 AVC / MPEG-4 part 10</property>
  <property name="meta.media.0.codec.bit_rate">0</property>
  <property name="meta.attr.0.stream.DURATION.markup">00:16:06.934000000</property>
  <property name="meta.media.1.stream.type">audio</property>
  <property name="meta.media.1.codec.sample_fmt">fltp</property>
  <property name="meta.media.1.codec.sample_rate">48000</property>
  <property name="meta.media.1.codec.channels">2</property>
  <property name="meta.media.1.codec.name">vorbis</property>
  <property name="meta.media.1.codec.long_name">Vorbis</property>
  <property name="meta.media.1.codec.bit_rate">0</property>
  <property name="meta.attr.1.stream.DURATION.markup">00:16:06.973000000</property>
  <property name="meta.attr.ENCODER.markup">Lavf58.29.100</property>
  <property name="meta.media.sample_aspect_num">1</property>
  <property name="meta.media.sample_aspect_den">1</property>
  <property name="meta.media.frame_rate_num">500</property>
  <property name="meta.media.frame_rate_den">11</property>
  <property name="meta.media.colorspace">709</property>
  <property name="meta.media.color_trc">1</property>
  <property name="meta.media.width">1366</property>
  <property name="meta.media.height">768</property>
  <property name="meta.media.color_range">mpeg</property>
  <property name="meta.media.top_field_first">0</property>
  <property name="meta.media.progressive">1</property>
  <property name="set.test_audio">0</property>
  <property name="set.test_image">1</property>
 </producer>
 <playlist id="playlist2">
  <property name="kdenlive:audio_track">1</property>
  <entry producer="producer2" in="00:00:00.000" out="00:03:45.145">
   <property name="kdenlive:id">3</property>
  </entry>
  <entry producer="producer2" in="00:05:00.934" out="00:06:22.055">
   <property name="kdenlive:id">3</property>
  </entry>
  <entry producer="producer2" in="00:06:27.528" out="00:07:51.218">
   <property name="kdenlive:id">3</property>
  </entry>
  <entry producer="producer2" in="00:07:58.492" out="00:08:23.390">
   <property name="kdenlive:id">3</property>
  </entry>
  <entry producer="producer2" in="00:08:25.325" out="00:08:55.556">
   <property name="kdenlive:id">3</property>
  </entry>
  <entry producer="producer2" in="00:09:03.570" out="00:09:21.054">
   <property name="kdenlive:id">3</property>
  </entry>
  <entry producer="producer2" in="00:09:23.557" out="00:09:26.393">
   <property name="kdenlive:id">3</property>
  </entry>
  <entry producer="producer2" in="00:09:33.667" out="00:09:50.951">
   <property name="kdenlive:id">3</property>
  </entry>
  <entry producer="producer2" in="00:09:57.958" out="00:10:16.783">
   <property name="kdenlive:id">3</property>
  </entry>
  <entry producer="producer2" in="00:10:21.955" out="00:10:24.525">
   <property name="kdenlive:id">3</property>
  </entry>
  <entry producer="producer2" in="00:10:32.466" out="00:11:09.343">
   <property name="kdenlive:id">3</property>
  </entry>
  <entry producer="producer2" in="00:11:44.511" out="00:12:11.612">
   <property name="kdenlive:id">3</property>
  </entry>
  <entry producer="producer2" in="00:12:21.889" out="00:12:49.349">
   <property name="kdenlive:id">3</property>
  </entry>
  <entry producer="producer2" in="00:12:52.386" out="00:14:07.674">
   <property name="kdenlive:id">3</property>
  </entry>
  <entry producer="producer2" in="00:14:14.681" out="00:14:20.287">
   <property name="kdenlive:id">3</property>
  </entry>
  <entry producer="producer2" in="00:14:20.320" out="00:14:43.810">
   <property name="kdenlive:id">3</property>
  </entry>
  <entry producer="producer2" in="00:14:43.844" out="00:14:58.825">
   <property name="kdenlive:id">3</property>
  </entry>
  <entry producer="producer2" in="00:15:16.450" out="00:15:35.402">
   <property name="kdenlive:id">3</property>
  </entry>
  <entry producer="producer2" in="00:15:43.277" out="00:15:58.492">
   <property name="kdenlive:id">3</property>
  </entry>
  <entry producer="producer2" in="00:16:03.904" out="00:16:06.940">
   <property name="kdenlive:id">3</property>
  </entry>
  <filter id="filter3">
   <property name="window">75</property>
   <property name="max_gain">20dB</property>
   <property name="mlt_service">volume</property>
   <property name="internal_added">237</property>
   <property name="disable">1</property>
  </filter>
  <filter id="filter4">
   <property name="channel">-1</property>
   <property name="mlt_service">panner</property>
   <property name="internal_added">237</property>
   <property name="start">0.5</property>
   <property name="disable">1</property>
  </filter>
 </playlist>
 <playlist id="playlist3">
  <property name="kdenlive:audio_track">1</property>
 </playlist>
 <tractor id="tractor1" in="00:00:00.000" out="00:12:32.699">
  <property name="kdenlive:audio_track">1</property>
  <property name="kdenlive:trackheight">60</property>
  <property name="kdenlive:collapsed">0</property>
  <property name="kdenlive:thumbs_format"/>
  <property name="kdenlive:audio_rec"/>
  <property name="kdenlive:timeline_active">1</property>
  <track hide="video" producer="playlist2"/>
  <track hide="video" producer="playlist3"/>
  <filter id="filter5">
   <property name="iec_scale">0</property>
   <property name="mlt_service">audiolevel</property>
  </filter>
 </tractor>
 <producer title="Anonymous Submission" id="producer3" in="00:00:00.000" out="00:16:06.940">
  <property name="length">28980</property>
  <property name="eof">pause</property>
  <property name="resource">/home/docu/Videos/p9-rev-2022-11-23_15.50.34.mkv</property>
  <property name="audio_index">1</property>
  <property name="video_index">0</property>
  <property name="mute_on_pause">0</property>
  <property name="mlt_service">avformat-novalidate</property>
  <property name="seekable">1</property>
  <property name="aspect_ratio">1</property>
  <property name="kdenlive:clipname"/>
  <property name="kdenlive:folderid">-1</property>
  <property name="kdenlive:id">3</property>
  <property name="kdenlive:file_size">51058310</property>
  <property name="kdenlive:file_hash">583e26419cf906cd2475bc5e823567dc</property>
  <property name="global_feed">1</property>
  <property name="xml">was here</property>
  <property name="meta.media.nb_streams">2</property>
  <property name="meta.media.0.stream.type">video</property>
  <property name="meta.media.0.stream.frame_rate">45.4545</property>
  <property name="meta.media.0.stream.sample_aspect_ratio">1</property>
  <property name="meta.media.0.codec.width">1366</property>
  <property name="meta.media.0.codec.height">768</property>
  <property name="meta.media.0.codec.rotate">0</property>
  <property name="meta.media.0.codec.frame_rate">45</property>
  <property name="meta.media.0.codec.pix_fmt">yuv420p</property>
  <property name="meta.media.0.codec.sample_aspect_ratio">1</property>
  <property name="meta.media.0.codec.colorspace">709</property>
  <property name="meta.media.0.codec.color_trc">1</property>
  <property name="meta.media.0.codec.name">h264</property>
  <property name="meta.media.0.codec.long_name">H.264 / AVC / MPEG-4 AVC / MPEG-4 part 10</property>
  <property name="meta.media.0.codec.bit_rate">0</property>
  <property name="meta.attr.0.stream.DURATION.markup">00:16:06.934000000</property>
  <property name="meta.media.1.stream.type">audio</property>
  <property name="meta.media.1.codec.sample_fmt">fltp</property>
  <property name="meta.media.1.codec.sample_rate">48000</property>
  <property name="meta.media.1.codec.channels">2</property>
  <property name="meta.media.1.codec.name">vorbis</property>
  <property name="meta.media.1.codec.long_name">Vorbis</property>
  <property name="meta.media.1.codec.bit_rate">0</property>
  <property name="meta.attr.1.stream.DURATION.markup">00:16:06.973000000</property>
  <property name="meta.attr.ENCODER.markup">Lavf58.29.100</property>
  <property name="meta.media.sample_aspect_num">1</property>
  <property name="meta.media.sample_aspect_den">1</property>
  <property name="meta.media.frame_rate_num">500</property>
  <property name="meta.media.frame_rate_den">11</property>
  <property name="meta.media.colorspace">709</property>
  <property name="meta.media.color_trc">1</property>
  <property name="meta.media.width">1366</property>
  <property name="meta.media.height">768</property>
  <property name="meta.media.color_range">mpeg</property>
  <property name="meta.media.top_field_first">0</property>
  <property name="meta.media.progressive">1</property>
  <property name="set.test_audio">1</property>
  <property name="set.test_image">0</property>
 </producer>
 <playlist id="playlist4">
  <entry producer="producer3" in="00:00:00.000" out="00:03:45.145">
   <property name="kdenlive:id">3</property>
  </entry>
  <entry producer="producer3" in="00:05:00.934" out="00:06:22.055">
   <property name="kdenlive:id">3</property>
  </entry>
  <entry producer="producer3" in="00:06:27.528" out="00:07:51.218">
   <property name="kdenlive:id">3</property>
  </entry>
  <entry producer="producer3" in="00:07:58.492" out="00:08:23.390">
   <property name="kdenlive:id">3</property>
  </entry>
  <entry producer="producer3" in="00:08:25.325" out="00:08:55.556">
   <property name="kdenlive:id">3</property>
  </entry>
  <entry producer="producer3" in="00:09:03.570" out="00:09:21.054">
   <property name="kdenlive:id">3</property>
  </entry>
  <entry producer="producer3" in="00:09:23.557" out="00:09:26.393">
   <property name="kdenlive:id">3</property>
  </entry>
  <entry producer="producer3" in="00:09:33.667" out="00:09:50.951">
   <property name="kdenlive:id">3</property>
  </entry>
  <entry producer="producer3" in="00:09:57.958" out="00:10:16.783">
   <property name="kdenlive:id">3</property>
  </entry>
  <entry producer="producer3" in="00:10:21.955" out="00:10:24.525">
   <property name="kdenlive:id">3</property>
  </entry>
  <entry producer="producer3" in="00:10:32.466" out="00:11:09.343">
   <property name="kdenlive:id">3</property>
  </entry>
  <entry producer="producer3" in="00:11:44.511" out="00:12:11.612">
   <property name="kdenlive:id">3</property>
  </entry>
  <entry producer="producer3" in="00:12:21.889" out="00:12:49.349">
   <property name="kdenlive:id">3</property>
  </entry>
  <entry producer="producer3" in="00:12:52.386" out="00:14:07.674">
   <property name="kdenlive:id">3</property>
  </entry>
  <entry producer="producer3" in="00:14:14.681" out="00:14:20.287">
   <property name="kdenlive:id">3</property>
  </entry>
  <entry producer="producer3" in="00:14:20.320" out="00:14:43.810">
   <property name="kdenlive:id">3</property>
  </entry>
  <entry producer="producer3" in="00:14:43.844" out="00:14:58.825">
   <property name="kdenlive:id">3</property>
  </entry>
  <entry producer="producer3" in="00:15:16.450" out="00:15:35.402">
   <property name="kdenlive:id">3</property>
  </entry>
  <entry producer="producer3" in="00:15:43.277" out="00:15:58.492">
   <property name="kdenlive:id">3</property>
  </entry>
  <entry producer="producer3" in="00:16:03.904" out="00:16:06.940">
   <property name="kdenlive:id">3</property>
   <filter id="filter6" in="00:16:03.937" out="00:16:06.940">
    <property name="start">1</property>
    <property name="mlt_service">brightness</property>
    <property name="kdenlive_id">fade_to_black</property>
    <property name="end">0</property>
    <property name="alpha">-1</property>
   </filter>
  </entry>
 </playlist>
 <playlist id="playlist5"/>
 <tractor id="tractor2" in="00:00:00.000" out="00:12:32.699">
  <property name="kdenlive:trackheight">60</property>
  <property name="kdenlive:collapsed">0</property>
  <property name="kdenlive:thumbs_format"/>
  <property name="kdenlive:audio_rec"/>
  <property name="kdenlive:timeline_active">1</property>
  <track hide="audio" producer="playlist4"/>
  <track hide="audio" producer="playlist5"/>
 </tractor>
 <playlist id="playlist6">
  <entry producer="producer0" in="00:00:00.000" out="00:00:14.982">
   <property name="kdenlive:id">2</property>
   <filter id="filter7" out="00:00:03.003">
    <property name="start">0</property>
    <property name="mlt_service">brightness</property>
    <property name="kdenlive_id">fade_from_black</property>
    <property name="end">1</property>
    <property name="alpha">-1</property>
    <property name="kdenlive:collapsed">0</property>
   </filter>
   <filter id="filter8" in="00:00:11.979" out="00:00:14.982">
    <property name="start">1</property>
    <property name="mlt_service">brightness</property>
    <property name="kdenlive_id">fade_to_black</property>
    <property name="end">0</property>
    <property name="alpha">-1</property>
    <property name="kdenlive:collapsed">0</property>
   </filter>
  </entry>
 </playlist>
 <playlist id="playlist7"/>
 <tractor id="tractor3" in="00:00:00.000" out="00:00:14.982">
  <property name="kdenlive:trackheight">60</property>
  <property name="kdenlive:collapsed">0</property>
  <property name="kdenlive:thumbs_format"/>
  <property name="kdenlive:audio_rec"/>
  <property name="kdenlive:timeline_active"/>
  <track hide="audio" producer="playlist6"/>
  <track hide="audio" producer="playlist7"/>
 </tractor>
 <tractor title="Anonymous Submission" id="tractor4" global_feed="1" in="00:00:00.000" out="00:29:13.747">
  <track producer="black_track"/>
  <track producer="tractor0"/>
  <track producer="tractor1"/>
  <track producer="tractor2"/>
  <track producer="tractor3"/>
  <transition id="transition0">
   <property name="a_track">0</property>
   <property name="b_track">1</property>
   <property name="mlt_service">mix</property>
   <property name="kdenlive_id">mix</property>
   <property name="internal_added">237</property>
   <property name="always_active">1</property>
   <property name="sum">1</property>
  </transition>
  <transition id="transition1">
   <property name="a_track">0</property>
   <property name="b_track">2</property>
   <property name="mlt_service">mix</property>
   <property name="kdenlive_id">mix</property>
   <property name="internal_added">237</property>
   <property name="always_active">1</property>
   <property name="sum">1</property>
  </transition>
  <transition id="transition2">
   <property name="a_track">0</property>
   <property name="b_track">3</property>
   <property name="compositing">0</property>
   <property name="distort">0</property>
   <property name="rotate_center">0</property>
   <property name="mlt_service">qtblend</property>
   <property name="kdenlive_id">qtblend</property>
   <property name="internal_added">237</property>
   <property name="always_active">1</property>
  </transition>
  <transition id="transition3">
   <property name="a_track">0</property>
   <property name="b_track">4</property>
   <property name="compositing">0</property>
   <property name="distort">0</property>
   <property name="rotate_center">0</property>
   <property name="mlt_service">qtblend</property>
   <property name="kdenlive_id">qtblend</property>
   <property name="internal_added">237</property>
   <property name="always_active">1</property>
  </transition>
  <filter id="filter9">
   <property name="window">75</property>
   <property name="max_gain">20dB</property>
   <property name="mlt_service">volume</property>
   <property name="internal_added">237</property>
   <property name="disable">1</property>
  </filter>
  <filter id="filter10">
   <property name="channel">-1</property>
   <property name="mlt_service">panner</property>
   <property name="internal_added">237</property>
   <property name="start">0.5</property>
   <property name="disable">1</property>
  </filter>
  <filter id="filter11">
   <property name="iec_scale">0</property>
   <property name="mlt_service">audiolevel</property>
  </filter>
 </tractor>
</mlt>
